<?xml version="1.0" encoding="UTF-8" standalone="no"?>
<!-- Created with Inkscape (http://www.inkscape.org/) -->

<svg
   width="400"
   height="400"
   viewBox="0 0 105.83333 105.83333"
   version="1.1"
   id="svg942"
   inkscape:version="1.2.2 (b0a8486541, 2022-12-01)"
   sodipodi:docname="PRIME-DE.svg"
   inkscape:export-filename="PRIME-RE.png"
   inkscape:export-xdpi="96"
   inkscape:export-ydpi="96"
   xmlns:inkscape="http://www.inkscape.org/namespaces/inkscape"
   xmlns:sodipodi="http://sodipodi.sourceforge.net/DTD/sodipodi-0.dtd"
   xmlns="http://www.w3.org/2000/svg"
   xmlns:svg="http://www.w3.org/2000/svg">
  <sodipodi:namedview
     id="namedview944"
     pagecolor="#ffffff"
     bordercolor="#666666"
     borderopacity="1.0"
     inkscape:showpageshadow="2"
     inkscape:pageopacity="0.0"
     inkscape:pagecheckerboard="0"
     inkscape:deskcolor="#d1d1d1"
     inkscape:document-units="mm"
     showgrid="false"
     inkscape:zoom="1.1893044"
     inkscape:cx="289.2447"
     inkscape:cy="225.3418"
     inkscape:window-width="2560"
     inkscape:window-height="1378"
     inkscape:window-x="1080"
     inkscape:window-y="0"
     inkscape:window-maximized="1"
     inkscape:current-layer="g902" />
  <defs
     id="defs939" />
  <g
     inkscape:label="Layer 1"
     inkscape:groupmode="layer"
     id="layer1">
    <g
       transform="matrix(1.0319312,0,0,1.0319312,-53.28753,-57.267465)"
       id="g902">
      <g
         id="g1560"
         transform="translate(-122.85202,-1.8333287)">
        <path
           id="path832-3"
           d="m 209.70899,120.38206 c -1.34642,-1.42007 -2.52407,-2.8179 -2.61699,-3.10631 -0.13328,-0.41364 0.2124,-0.86059 1.63705,-2.11666 0.9933,-0.87577 2.80094,-2.49773 4.01699,-3.60436 1.21604,-1.10663 2.99256,-2.46914 3.9478,-3.02779 0.95525,-0.55865 1.7966,-1.17151 1.86966,-1.36191 0.20205,-0.52653 -0.63003,-2.41818 -1.81003,-4.11494 -1.58649,-2.28126 -1.58691,-2.79654 -0.005,-5.839102 1.62672,-3.12831 5.03525,-8.33705 6.50231,-9.93647 1.40097,-1.52739 2.63542,-2.04911 6.69217,-2.82832 1.83716,-0.35289 3.54021,-0.79121 3.78456,-0.97405 0.24435,-0.18284 0.95588,-0.71939 1.58118,-1.19234 1.23153,-0.93147 1.78292,-1.01796 3.58948,-0.56307 1.63357,0.41134 2.86638,1.94139 2.69807,3.34858 -0.0648,0.54165 -0.009,1.38457 0.12451,1.87318 0.29304,1.07444 -0.14313,2.32475 -0.89415,2.56311 -0.30507,0.0968 -1.20861,-0.16524 -2.25021,-0.65266 -0.95724,-0.44795 -1.96351,-0.81445 -2.23615,-0.81445 -0.28478,0 -0.79219,0.44802 -1.1925,1.05293 -0.66289,1.0017 -0.71634,1.34612 -1.09828,7.07761 l -0.40147,6.024672 1.9299,6.35 c 1.82733,6.01251 1.93621,6.51542 2.04854,9.46259 0.0971,2.54878 0.042,3.2295 -0.30422,3.75795 -0.50418,0.76948 -2.08213,1.16279 -2.67871,0.66767 -0.50405,-0.41832 -0.50962,-1.49407 -0.009,-1.77414 0.22843,-0.12783 0.50364,-0.98132 0.67726,-2.10034 l 0.29247,-1.885 -3.22585,-6.44562 -3.22586,-6.44561 0.13489,-4.034902 c 0.0742,-2.21919 0.0602,-4.03452 -0.0311,-4.03406 -0.0913,5.3e-4 -1.45705,0.96001 -3.03502,2.13234 l -2.86903,2.1315 2.52665,2.603832 c 1.38966,1.43211 2.60765,2.92657 2.70666,3.32102 0.11304,0.45043 -0.22706,2.71667 -0.9144,6.09293 -1.25873,6.18296 -1.31874,7.03584 -0.54578,7.75596 0.55921,0.52098 2.86279,1.43817 4.40929,1.75559 0.99108,0.20342 1.35544,0.62207 0.83068,0.95444 -0.40499,0.25652 -7.17565,0.32107 -8.08539,0.0771 -0.31735,-0.0851 -0.61946,-0.29185 -0.67136,-0.45941 -0.25363,-0.81897 0.29813,-10.78446 0.68798,-12.42576 0.59525,-2.50608 0.56593,-2.72804 -0.40513,-3.06655 -1.23061,-0.429 -1.28343,-0.39342 -1.28343,0.86447 0,1.61268 -0.5607,2.20749 -4.17716,4.43123 -5.36816,3.30087 -6.66943,4.22712 -7.09517,5.0504 -0.40153,0.77648 -0.37916,0.869 0.79941,3.30679 0.66688,1.37938 1.2125,2.55689 1.2125,2.61668 0,0.0598 -0.26789,0.10972 -0.59531,0.11096 -0.41098,0.002 -1.35335,-0.79725 -3.04335,-2.57969 z"
           style="fill:#000000;fill-opacity:1;stroke-width:0.264583"
           inkscape:connector-curvature="0" />
        <path
           id="path830-3"
           d="m 180.61337,122.25577 c -0.37657,-0.23378 -0.9902,-0.91522 -1.36362,-1.51431 -0.37343,-0.59909 -0.9923,-1.51496 -1.37527,-2.03528 -0.38297,-0.52031 -0.62691,-1.11562 -0.54208,-1.32291 0.15551,-0.38003 2.88776,-2.46668 6.3322,-4.83597 1.02672,-0.70624 1.91454,-1.32948 1.97293,-1.38499 0.0584,-0.0555 -0.43835,-0.68303 -1.10386,-1.39452 -1.53129,-1.63707 -1.9956,-3.03051 -1.53327,-4.60152 0.26915,-0.91459 1.08771,-1.87378 4.38532,-5.13874 2.22992,-2.207842 4.34728,-4.206162 4.70525,-4.440712 0.57301,-0.37545 4.15064,-1.00163 7.93996,-1.38971 2.11018,-0.21611 3.12947,0.45427 3.83929,2.52508 0.24135,0.70411 0.22346,1.07164 -0.0885,1.81825 -0.21504,0.51467 -0.39099,1.19813 -0.39099,1.518792 0,0.58685 -0.9904,1.7336 -1.49724,1.7336 -0.14988,0 -0.95464,-0.59692 -1.78836,-1.32649 -0.83372,-0.729572 -1.60953,-1.268602 -1.72401,-1.197852 -0.11448,0.0708 -0.28133,0.66261 -0.37079,1.315232 -0.0894,0.65263 -0.40373,1.90228 -0.69841,2.77701 -0.29467,0.87472 -0.53577,2.03408 -0.53577,2.57634 0,0.54227 0.60994,3.49282 1.35542,6.55679 1.32381,5.44089 1.34833,5.61363 1.05096,7.40471 -0.16745,1.00862 -0.43217,1.98774 -0.58826,2.17581 -0.42579,0.51305 -2.0172,0.73969 -2.48248,0.35354 -0.56233,-0.46669 -0.48661,-1.45802 0.14388,-1.88355 0.30494,-0.20581 0.60501,-0.78428 0.69294,-1.33587 0.13154,-0.8251 -0.0747,-1.42795 -1.35743,-3.96875 -0.83189,-1.64773 -1.75845,-3.39855 -2.05903,-3.89071 l -0.54651,-0.89483 -0.83149,3.27608 c -0.45733,1.80185 -0.97368,3.6808 -1.14746,4.17546 -0.45544,1.29642 -0.39662,2.34767 0.14707,2.62823 0.25466,0.13141 1.08846,0.38568 1.85289,0.56506 3.22574,0.75691 1.50784,1.61186 -2.70828,1.34784 l -2.37675,-0.14884 -0.004,-3.57188 c -0.004,-3.01636 -0.0662,-3.56504 -0.40138,-3.52796 -0.5516,0.061 -6.65022,2.66402 -6.9545,2.9683 -0.20863,0.20863 0.22237,1.90202 1.0684,4.19769 0.16348,0.44359 -0.18742,0.40616 -1.01627,-0.10842 z"
           style="fill:#000000;fill-opacity:1;stroke-width:0.264583"
           inkscape:connector-curvature="0" />
        <path
           id="path826-3"
           d="m 250.08969,122.05295 c -0.43656,-0.19616 -1.32953,-0.9134 -1.98437,-1.59386 -0.65485,-0.68047 -1.6316,-1.48663 -2.17056,-1.79148 -1.5102,-0.85422 -1.48017,-1.1847 0.25774,-2.83581 2.0269,-1.92567 2.59533,-2.77905 3.6636,-5.50017 1.26574,-3.22413 2.03105,-4.42124 4.35942,-6.81901 1.13047,-1.16416 2.18267,-2.45183 2.33822,-2.86149 0.15556,-0.40966 0.28283,-2.349162 0.28283,-4.310022 0,-3.13174 -0.0694,-3.70062 -0.571,-4.67913 -0.77377,-1.50954 -0.92883,-4.23683 -0.39434,-6.93613 0.23036,-1.16342 0.4989,-3.30593 0.59675,-4.76114 l 0.17791,-2.64584 -0.55944,0.49799 c -0.92139,0.82017 -1.54301,2.49832 -2.17756,5.87862 -0.57339,3.05455 -0.58073,3.25229 -0.15958,4.30484 0.50341,1.25815 0.57592,2.70427 0.1566,3.12359 -0.19309,0.19309 -0.63711,0.20567 -1.37865,0.0391 -1.62091,-0.3642 -1.85821,-0.65515 -1.67986,-2.05973 0.0839,-0.66057 0.18582,-3.52275 0.22656,-6.36041 0.0845,-5.88917 0.10459,-5.95631 2.89546,-9.69837 1.25679,-1.68513 2.44966,-3.44939 4.03807,-5.97225 0.49543,-0.78689 0.49675,-0.87029 0.0482,-3.02825 -0.54587,-2.62634 -0.36307,-3.49903 1.01213,-4.83192 1.03166,-0.99992 2.67485,-1.33105 4.16489,-0.83929 1.13094,0.37324 2.68425,2.30118 2.48705,3.08687 -0.0757,0.30164 0.0303,0.78825 0.23564,1.08137 0.40797,0.58247 0.47106,2.21017 0.0857,2.21017 -0.13196,0 -0.18735,0.0893 -0.12309,0.19844 0.0643,0.10914 0.0156,0.46633 -0.10815,0.79375 -0.18726,0.49548 -0.42408,0.59531 -1.41215,0.59531 -1.14155,0 -1.19367,0.0347 -1.3566,0.90318 -0.13274,0.70757 0.0367,1.35974 0.78244,3.01136 1.62044,3.58891 1.76651,4.18724 1.7235,7.05963 -0.0573,3.82576 0.34991,4.64663 3.26816,6.58837 1.22954,0.8181 2.49397,1.48746 2.80986,1.48746 0.71065,0 2.28295,0.63965 2.52164,1.02587 0.38353,0.62056 -1.19272,2.6783 -2.0516,2.6783 -0.28832,0 -0.91625,-0.29902 -1.3954,-0.66448 -0.92898,-0.70857 -5.46281,-3.03969 -5.91193,-3.03969 -0.38516,0 -0.64887,1.21033 -0.66296,3.04271 -0.0111,1.44075 0.20685,2.07666 2.35755,6.87917 l 2.36975,5.291662 0.15779,8.0698 c 0.2046,10.46384 0.16552,10.35389 4.21129,11.84729 1.07343,0.39623 1.96344,0.83948 1.9778,0.985 0.0547,0.55446 -1.9193,0.8657 -5.26556,0.83022 l -3.43958,-0.0365 0.04,-1.05833 c 0.18557,-4.90645 0.18119,-4.94652 -0.86935,-7.94606 l -1.01633,-2.90186 0.062,-4.40674 0.062,-4.40674 -1.36883,-1.618642 c -0.75286,-0.89026 -1.4521,-1.5266 -1.55387,-1.4141 -0.10177,0.1125 -0.45648,1.03799 -0.78825,2.056632 -0.81732,2.50947 -1.16337,3.00949 -6.06049,8.75704 -2.3437,2.75071 -4.4968,5.48538 -4.78466,6.07702 -0.77474,1.59239 -0.67184,2.67835 0.42606,4.4961 1.55601,2.57622 1.52987,2.49933 0.84581,2.48762 -0.33254,-0.006 -0.9618,-0.17086 -1.39837,-0.36703 z"
           style="fill:#000000;fill-opacity:1;stroke-width:0.264583"
           inkscape:connector-curvature="0" />
        <text
           xml:space="preserve"
           style="font-style:normal;font-weight:normal;font-size:20.7368px;line-height:1.25;font-family:sans-serif;letter-spacing:0px;word-spacing:0px;fill:#156090;fill-opacity:1;stroke:none;stroke-width:0.518424"
           x="175.50484"
           y="144.36935"
           id="text906-8"><tspan
             sodipodi:role="line"
             x="175.50484"
             y="144.36935"
             style="font-style:normal;font-variant:normal;font-weight:bold;font-stretch:normal;font-size:24.8844px;font-family:Arial;-inkscape-font-specification:'Arial, Bold';font-variant-ligatures:normal;font-variant-caps:normal;font-variant-numeric:normal;font-feature-settings:normal;text-align:start;writing-mode:lr-tb;text-anchor:start;fill:#000000;fill-opacity:1;stroke-width:0.518424"
             id="tspan930-0">PRIMatE</tspan></text>
        <text
           id="text906-3-7"
           y="155.78923"
           x="176.30199"
           style="font-style:normal;font-weight:normal;font-size:11.5708px;line-height:1.25;font-family:sans-serif;letter-spacing:0px;word-spacing:0px;fill:#156090;fill-opacity:1;stroke:none;stroke-width:0.289272"
           xml:space="preserve"><tspan
             id="tspan930-8-6"
             style="font-style:normal;font-variant:normal;font-weight:bold;font-stretch:normal;font-size:13.885px;font-family:Arial;-inkscape-font-specification:'Arial, Bold';font-variant-ligatures:normal;font-variant-caps:normal;font-variant-numeric:normal;font-feature-settings:normal;text-align:start;writing-mode:lr-tb;text-anchor:start;fill:#000000;fill-opacity:1;stroke-width:0.289272"
             y="155.78923"
             x="176.30199"
             sodipodi:role="line">Data Exchange</tspan></text>
      </g>
    </g>
  </g>
</svg>
